<mxfile host="app.diagrams.net" modified="2022-05-07T03:51:06.788Z" agent="5.0 (Macintosh; Intel Mac OS X 10_15_7) AppleWebKit/537.36 (KHTML, like Gecko) Chrome/100.0.4896.127 Safari/537.36" etag="hAV7KsyQooyeZxpnoIis" version="18.0.1" type="github">
  <diagram id="sMabypkM0ru-lHOAoVkF" name="Page-1">
    <mxGraphModel dx="923" dy="630" grid="1" gridSize="10" guides="1" tooltips="1" connect="1" arrows="1" fold="1" page="1" pageScale="1" pageWidth="827" pageHeight="1169" math="0" shadow="0">
      <root>
        <mxCell id="0" />
        <mxCell id="1" parent="0" />
        <mxCell id="hKYgseLh9XZmj9BKmWUC-15" value="" style="rounded=1;whiteSpace=wrap;html=1;" parent="1" vertex="1">
          <mxGeometry x="120" y="455" width="510" height="90" as="geometry" />
        </mxCell>
        <mxCell id="hKYgseLh9XZmj9BKmWUC-2" value="" style="endArrow=none;dashed=1;html=1;rounded=0;" parent="1" edge="1">
          <mxGeometry width="50" height="50" relative="1" as="geometry">
            <mxPoint x="40" y="280" as="sourcePoint" />
            <mxPoint x="630" y="280" as="targetPoint" />
          </mxGeometry>
        </mxCell>
        <mxCell id="hKYgseLh9XZmj9BKmWUC-3" value="展示层" style="text;html=1;align=center;verticalAlign=middle;resizable=0;points=[];autosize=1;strokeColor=none;fillColor=none;" parent="1" vertex="1">
          <mxGeometry x="40" y="230" width="50" height="20" as="geometry" />
        </mxCell>
        <mxCell id="hKYgseLh9XZmj9BKmWUC-4" value="业务层&lt;br&gt;" style="text;html=1;align=center;verticalAlign=middle;resizable=0;points=[];autosize=1;strokeColor=none;fillColor=none;" parent="1" vertex="1">
          <mxGeometry x="40" y="310" width="50" height="20" as="geometry" />
        </mxCell>
        <mxCell id="hKYgseLh9XZmj9BKmWUC-6" value="" style="endArrow=none;dashed=1;html=1;rounded=0;" parent="1" edge="1">
          <mxGeometry width="50" height="50" relative="1" as="geometry">
            <mxPoint x="40" y="360" as="sourcePoint" />
            <mxPoint x="630" y="360" as="targetPoint" />
          </mxGeometry>
        </mxCell>
        <mxCell id="hKYgseLh9XZmj9BKmWUC-7" value="持久层" style="text;html=1;align=center;verticalAlign=middle;resizable=0;points=[];autosize=1;strokeColor=none;fillColor=none;" parent="1" vertex="1">
          <mxGeometry x="40" y="390" width="50" height="20" as="geometry" />
        </mxCell>
        <mxCell id="hKYgseLh9XZmj9BKmWUC-8" value="" style="endArrow=none;dashed=1;html=1;rounded=0;" parent="1" edge="1">
          <mxGeometry width="50" height="50" relative="1" as="geometry">
            <mxPoint x="40" y="440" as="sourcePoint" />
            <mxPoint x="630" y="440" as="targetPoint" />
          </mxGeometry>
        </mxCell>
        <mxCell id="hKYgseLh9XZmj9BKmWUC-9" value="数据库" style="text;html=1;align=center;verticalAlign=middle;resizable=0;points=[];autosize=1;strokeColor=none;fillColor=none;" parent="1" vertex="1">
          <mxGeometry x="40" y="490" width="50" height="20" as="geometry" />
        </mxCell>
        <mxCell id="hKYgseLh9XZmj9BKmWUC-10" value="" style="endArrow=none;dashed=1;html=1;rounded=0;" parent="1" edge="1">
          <mxGeometry width="50" height="50" relative="1" as="geometry">
            <mxPoint x="40" y="560" as="sourcePoint" />
            <mxPoint x="630" y="560" as="targetPoint" />
          </mxGeometry>
        </mxCell>
        <mxCell id="hKYgseLh9XZmj9BKmWUC-11" value="CoreData" style="shape=cylinder3;whiteSpace=wrap;html=1;boundedLbl=1;backgroundOutline=1;size=15;" parent="1" vertex="1">
          <mxGeometry x="210" y="460" width="60" height="80" as="geometry" />
        </mxCell>
        <mxCell id="hKYgseLh9XZmj9BKmWUC-12" value="Plist" style="shape=cylinder3;whiteSpace=wrap;html=1;boundedLbl=1;backgroundOutline=1;size=15;" parent="1" vertex="1">
          <mxGeometry x="470" y="460" width="60" height="80" as="geometry" />
        </mxCell>
        <mxCell id="hKYgseLh9XZmj9BKmWUC-13" value="" style="endArrow=none;dashed=1;html=1;rounded=0;" parent="1" edge="1">
          <mxGeometry width="50" height="50" relative="1" as="geometry">
            <mxPoint x="40" y="200" as="sourcePoint" />
            <mxPoint x="630" y="200" as="targetPoint" />
          </mxGeometry>
        </mxCell>
        <mxCell id="hKYgseLh9XZmj9BKmWUC-14" value="UI 层" style="text;html=1;align=center;verticalAlign=middle;resizable=0;points=[];autosize=1;strokeColor=none;fillColor=none;" parent="1" vertex="1">
          <mxGeometry x="45" y="150" width="40" height="20" as="geometry" />
        </mxCell>
        <mxCell id="hKYgseLh9XZmj9BKmWUC-17" value="" style="rounded=1;whiteSpace=wrap;html=1;" parent="1" vertex="1">
          <mxGeometry x="120" y="375" width="510" height="50" as="geometry" />
        </mxCell>
        <mxCell id="hKYgseLh9XZmj9BKmWUC-18" value="" style="rounded=1;whiteSpace=wrap;html=1;" parent="1" vertex="1">
          <mxGeometry x="120" y="290" width="510" height="60" as="geometry" />
        </mxCell>
        <mxCell id="hKYgseLh9XZmj9BKmWUC-19" value="" style="rounded=1;whiteSpace=wrap;html=1;" parent="1" vertex="1">
          <mxGeometry x="120" y="210" width="510" height="60" as="geometry" />
        </mxCell>
        <mxCell id="hKYgseLh9XZmj9BKmWUC-21" value="网络层" style="rounded=1;whiteSpace=wrap;html=1;" parent="1" vertex="1">
          <mxGeometry x="150" y="305" width="70" height="30" as="geometry" />
        </mxCell>
        <mxCell id="hKYgseLh9XZmj9BKmWUC-22" value="删除" style="rounded=1;whiteSpace=wrap;html=1;" parent="1" vertex="1">
          <mxGeometry x="220" y="385" width="70" height="30" as="geometry" />
        </mxCell>
        <mxCell id="hKYgseLh9XZmj9BKmWUC-23" value="修改" style="rounded=1;whiteSpace=wrap;html=1;" parent="1" vertex="1">
          <mxGeometry x="310" y="385" width="70" height="30" as="geometry" />
        </mxCell>
        <mxCell id="hKYgseLh9XZmj9BKmWUC-24" value="增加" style="rounded=1;whiteSpace=wrap;html=1;" parent="1" vertex="1">
          <mxGeometry x="400" y="385" width="70" height="30" as="geometry" />
        </mxCell>
        <mxCell id="aBt0ebhu9R7T6RjYbzfd-1" value="存储" style="rounded=1;whiteSpace=wrap;html=1;" vertex="1" parent="1">
          <mxGeometry x="130" y="385" width="70" height="30" as="geometry" />
        </mxCell>
        <mxCell id="aBt0ebhu9R7T6RjYbzfd-2" value="蓝牙层" style="rounded=1;whiteSpace=wrap;html=1;" vertex="1" parent="1">
          <mxGeometry x="250" y="305" width="70" height="30" as="geometry" />
        </mxCell>
        <mxCell id="aBt0ebhu9R7T6RjYbzfd-4" value="" style="rounded=1;whiteSpace=wrap;html=1;" vertex="1" parent="1">
          <mxGeometry x="375" y="220" width="215" height="30" as="geometry" />
        </mxCell>
        <mxCell id="aBt0ebhu9R7T6RjYbzfd-5" value="request" style="text;html=1;align=center;verticalAlign=middle;resizable=0;points=[];autosize=1;strokeColor=none;fillColor=none;" vertex="1" parent="1">
          <mxGeometry x="375" y="225" width="60" height="20" as="geometry" />
        </mxCell>
        <mxCell id="aBt0ebhu9R7T6RjYbzfd-6" value="POST" style="rounded=1;whiteSpace=wrap;html=1;" vertex="1" parent="1">
          <mxGeometry x="447.5" y="220" width="70" height="30" as="geometry" />
        </mxCell>
        <mxCell id="aBt0ebhu9R7T6RjYbzfd-7" value="GET" style="rounded=1;whiteSpace=wrap;html=1;" vertex="1" parent="1">
          <mxGeometry x="520" y="220" width="70" height="30" as="geometry" />
        </mxCell>
      </root>
    </mxGraphModel>
  </diagram>
</mxfile>
